#!OML:ASF \\sashay\E\basketball\basketball\Project 1\Capture day 1\Session 1\Subject.ASF
:FULLY-SPECIFIED
:DEGREES
49
root 25.6019 13.7528 12.5161 189.891 -14.7458 -180.575
lowerback 31.4063 1.73056 6.36537
upperback 10.5088 1.55434 -1.11346
thorax -4.90413 -0.115745 -5.36977
lowerneck -11.5331 11.1588 -6.65974
upperneck -29.6494 11.6553 -3.64535
head -7.66875 4.8527 -0.248711
rclavicle 1.27222e-014 1.66979e-014
rhumerus -10.3139 9.01743 -79.3352
rradius 50.8894
rwrist -26.1771
rhand -23.9547 24.9934
rfingers 7.12502
rthumb 2.52114 -4.97144
lclavicle 1.27222e-014 1.66979e-014
lhumerus -36.1041 19.9015 85.7379
lradius 55.9066
lwrist 28.7847
lhand -18.1487 15.7129
lfingers 7.12502
lthumb 8.12684 45.5366
rfemur -31.8814 -19.0121 0.430219
rtibia 59.1959
rfoot -29.2232 -8.4989
rtoes -49.9
lfemur -58.6813 34.4625 -16.8014
ltibia 67.0822
lfoot -15.1515 5.56494
ltoes -6.20876
50
root 25.4657 13.6589 12.5206 189.845 -14.359 -180.752
lowerback 33.0329 1.72485 6.17787
upperback 10.6274 1.37052 -1.29589
thorax -4.96832 -0.276408 -4.99785
lowerneck -11.7419 11.4518 -7.36781
upperneck -30.4231 11.9354 -3.79709
head -7.96952 4.99579 -0.206063
rclavicle 4.73108e-014 -2.18663e-014
rhumerus -7.47917 9.6239 -78.5741
rradius 50.6839
rwrist -26.1381
rhand -24.5498 25.0556
rfingers 7.12502
rthumb 1.94637 -4.91526
lclavicle 4.73108e-014 -2.18663e-014
lhumerus -35.2227 20.1486 84.9046
lradius 56.8581
lwrist 31.3308
lhand -17.3726 18.6505
lfingers 7.12502
lthumb 8.87578 48.4438
rfemur -32.3623 -19.9595 -0.0494832
rtibia 59.7279
rfoot -26.2592 -16.0298
rtoes -55.3432
lfemur -59.0272 34.6172 -15.9805
ltibia 66.1678
lfoot -14.899 5.77613
ltoes -5.26578
51
root 25.3299 13.5787 12.5179 189.862 -13.8826 -181.153
lowerback 34.1944 1.86627 5.53983
upperback 11.104 1.14902 -1.27457
thorax -4.92771 -0.475345 -4.55455
lowerneck -11.8949 11.723 -8.02628
upperneck -31.1598 12.202 -3.8813
head -8.27225 5.12468 -0.151922
rclavicle -3.57812e-015 -2.26615e-014
rhumerus -4.45177 10.5667 -77.6573
rradius 50.7222
rwrist -26.3088
rhand -25.4997 25.1801
rfingers 7.12502
rthumb 1.02895 -4.79721
lclavicle -3.57812e-015 -2.26615e-014
lhumerus -34.4892 19.9419 84.376
lradius 57.6161
lwrist 31.667
lhand -18.7538 19.0467
lfingers 7.12502
lthumb 7.5428 48.8922
rfemur -32.2697 -19.9173 -1.55995
rtibia 60.0791
rfoot -27.9127 -13.1547
rtoes -54.7104
lfemur -59.1255 34.6945 -15.3085
ltibia 65.2411
lfoot -14.7297 6.30021
ltoes -6.142
52
root 25.1851 13.5105 12.5115 190.042 -13.3806 -181.534
lowerback 35.0273 1.97209 4.80342
upperback 11.581 0.825141 -1.35545
thorax -4.76572 -0.716207 -4.13303
lowerneck -11.8718 12.1558 -8.13087
upperneck -31.9903 12.6074 -4.2002
head -8.57989 5.27115 -0.275528
rclavicle -9.54166e-015 -2.14687e-014
rhumerus -1.20568 11.5977 -76.9405
rradius 50.9247
rwrist -26.6278
rhand -26.1198 25.5945
rfingers 7.12502
rthumb 0.430074 -4.38476
lclavicle -9.54166e-015 -2.14687e-014
lhumerus -33.5204 19.8855 83.2188
lradius 57.9766
lwrist 33.1382
lhand -18.8128 19.6468
lfingers 7.12502
lthumb 7.48586 49.4943
rfemur -32.6896 -20.3672 -2.65777
rtibia 60.5194
rfoot -27.598 -14.13
rtoes -54.7462
lfemur -59.4435 35.0352 -14.8875
ltibia 64.4022
lfoot -14.5796 6.80954
ltoes -6.41523
53
root 25.0336 13.4126 12.5017 190.33 -12.9185 -181.704
lowerback 35.586 2.05101 4.23135
upperback 12.081 0.510659 -1.42014
thorax -4.46257 -0.945456 -3.78694
lowerneck -12.104 12.5544 -8.38727
upperneck -32.6532 13.047 -4.28726
head -8.82089 5.42818 -0.285327
rclavicle 7.55382e-015 -2.28602e-014
rhumerus 2.19352 12.4538 -76.218
rradius 51.3684
rwrist -26.9201
rhand -26.5299 26.4754
rfingers 7.12502
rthumb 0.033964 -3.50434
lclavicle 7.55382e-015 -2.28602e-014
lhumerus -32.6996 21.9148 81.9315
lradius 59.0471
lwrist 31.9294
lhand -18.7554 20.472
lfingers 7.12502
lthumb 7.5413 50.3175
rfemur -33.1365 -20.6873 -3.52893
rtibia 60.7812
rfoot -26.3371 -16.6443
rtoes -55.4118
lfemur -60.0988 35.4004 -14.2842
ltibia 63.8542
lfoot -14.4553 7.24106
ltoes -5.79426
54
root 24.8716 13.3284 12.489 190.619 -12.464 -181.531
lowerback 36.0952 2.20594 4.15539
upperback 12.3651 0.544696 -1.35554
thorax -4.32429 -0.979401 -3.68681
lowerneck -11.9697 12.5645 -9.23694
upperneck -33.018 13.1734 -3.83739
head -9.09816 5.52453 -0.0345215
rclavicle 5.20816e-014 -6.67916e-014
rhumerus 4.88566 12.7594 -75.1827
rradius 52.3684
rwrist -27.3819
rhand -27.2629 27.3926
rfingers 7.12502
rthumb -0.674039 -2.58607
lclavicle 5.20816e-014 -6.67916e-014
lhumerus -32.0072 22.7019 80.7359
lradius 59.6646
lwrist 32.0577
lhand -18.3777 20.9222
lfingers 7.12502
lthumb 7.90582 50.7544
rfemur -33.5561 -20.5467 -4.20348
rtibia 61.0493
rfoot -27.4098 -14.783
rtoes -55.2173
lfemur -60.8539 36.0354 -13.4942
ltibia 63.4927
lfoot -14.4037 7.35547
ltoes -5.22977
55
root 24.702 13.2391 12.4729 190.851 -11.9845 -181.293
lowerback 36.7674 2.30606 4.21467
upperback 12.4975 0.555246 -1.56546
thorax -4.26722 -1.0103 -3.93202
lowerneck -12.0596 12.5544 -9.60684
upperneck -32.9326 13.3716 -3.23041
head -9.13826 5.61186 0.219898
rclavicle 4.49253e-014 -2.54444e-014
rhumerus 7.27921 12.7211 -74.6726
rradius 53.7457
rwrist -27.7757
rhand -27.8734 28.1146
rfingers 7.12502
rthumb -1.26368 -1.86136
lclavicle 4.49253e-014 -2.54444e-014
lhumerus -31.1875 23.5785 79.0072
lradius 60.2184
lwrist 32.1421
lhand -18.0504 21.051
lfingers 7.12502
lthumb 8.22169 50.8711
rfemur -33.9366 -20.596 -4.65532
rtibia 61.1806
rfoot -26.9993 -15.5676
rtoes -55.8948
lfemur -61.53 36.6134 -12.5428
ltibia 63.4223
lfoot -14.4337 7.59712
ltoes -4.30124
56
root 24.5264 13.1472 12.4492 191.012 -11.5668 -181.068
lowerback 37.1812 2.55756 4.05104
upperback 12.8305 0.653564 -1.58392
thorax -4.0354 -1.01432 -3.89844
lowerneck -12.0712 12.4201 -10.0886
upperneck -32.8326 13.3889 -2.65667
head -9.18716 5.63472 0.484985
rclavicle 9.93923e-015 -1.05356e-014
rhumerus 9.61861 12.5792 -73.8643
rradius 55.4452
rwrist -28.3273
rhand -28.135 28.8186
rfingers 7.12502
rthumb -1.51625 -1.15573
lclavicle 9.93923e-015 -1.05356e-014
lhumerus -30.7661 24.0661 77.4791
lradius 61.6614
lwrist 33.1348
lhand -17.6648 21.3892
lfingers 7.12502
lthumb 8.59381 51.1943
rfemur -34.0391 -20.7392 -5.36539
rtibia 61.221
rfoot -27.9168 -13.8593
rtoes -56.0159
lfemur -62.2383 37.3359 -11.782
ltibia 63.5452
lfoot -14.3194 7.92538
ltoes -4.90033
57
root 24.3419 13.0521 12.4161 191.13 -11.222 -180.78
lowerback 37.6662 2.62377 4.25046
upperback 13.0309 0.663755 -1.97065
thorax -3.96661 -1.02518 -4.41369
lowerneck -11.7051 12.3527 -9.99839
upperneck -33.0808 13.4352 -2.0523
head -9.37381 5.59229 0.651968
rclavicle -1.21259e-014 -1.08338e-014
rhumerus 11.443 12.1008 -73.6089
rradius 57.4304
rwrist -29.0324
rhand -28.1927 29.6635
rfingers 7.12502
rthumb -1.57202 -0.310424
lclavicle -1.21259e-014 -1.08338e-014
lhumerus -30.4551 24.1828 75.1736
lradius 63.2573
lwrist 34.7895
lhand -17.9165 21.2542
lfingers 7.12502
lthumb 8.35088 51.0691
rfemur -33.9462 -20.9916 -6.08082
rtibia 61.1113
rfoot -28.6305 -12.0969
rtoes -55.8273
lfemur -62.9684 38.0843 -11.0967
ltibia 63.8569
lfoot -14.2029 8.2192
ltoes -5.16399
